# xmcd
#
# Track frame offsets: 
#        150
#        12568
#        23378
#        33630
#        43868
#        53625
#        65525
#        75743
#        88245
#        102355
#        113691
#        128160
#        142753
#        153853
#        165599
#        177560
#        189219
#        202183
#        214040
#        225455
#        238376
#        248178
#        257785
#        269415
#        281899
#        294007
#
# Disc length: 4092 seconds
#
# Revision: 0
# Processed by: cddbd v1.5.2PL0 Copyright (c) Steve Scherf et al.
# Submitted via: ExactAudioCopy v0.99pb4
#
DISCID=720ffa1a
DTITLE=Annie Laurie - It Hurts To Be In Love
DYEAR=1951
DGENRE=R&B
TTITLE0=It Hurts To Be In Love
TTITLE1=Nobody's Gonna Hurt You
TTITLE2=Hold On To What You Got
TTITLE3=Since I Fell For You
TTITLE4=Rockin' And Rollin' Again
TTITLE5=You Promised Love
TTITLE6=I Feel So Right Tonight
TTITLE7=Cryin' Sighin' Dyin'
TTITLE8=You Belong To Me
TTITLE9=Stop Talkin' And Start Walkin'
TTITLE10=Lonesome And Blue
TTITLE11=Give Me Half A Chance
TTITLE12=Love Is A Funny Thing
TTITLE13=If You're Lonely
TTITLE14=Lost Love
TTITLE15=Hand In Hand
TTITLE16=It Must Be You
TTITLE17=Please Honey Don't Go
TTITLE18=Get Me Some Money
TTITLE19=Feeling The Need
TTITLE20=In The Mood For You
TTITLE21=It's Gonna Come Out In The Wash Someday
TTITLE22=Out Of My Mind
TTITLE23=Someday Someway
TTITLE24=Trouble In Mind
TTITLE25=Time Out For Tears
EXTD=
EXTT0=
EXTT1=
EXTT2=
EXTT3=
EXTT4=
EXTT5=
EXTT6=
EXTT7=
EXTT8=
EXTT9=
EXTT10=
EXTT11=
EXTT12=
EXTT13=
EXTT14=
EXTT15=
EXTT16=
EXTT17=
EXTT18=
EXTT19=
EXTT20=
EXTT21=
EXTT22=
EXTT23=
EXTT24=
EXTT25=
PLAYORDER=
